<?xml version="1.0" encoding="utf-8"?>
<!-- Generator: Adobe Illustrator 27.8.1, SVG Export Plug-In . SVG Version: 6.00 Build 0)  -->
<svg version="1.1" id="Camada_2_00000163069462187346111860000009530973794847547827_"
	 xmlns="http://www.w3.org/2000/svg" xmlns:xlink="http://www.w3.org/1999/xlink" x="0px" y="0px" viewBox="0 0 133.2 133.2"
	 style="enable-background:new 0 0 133.2 133.2;" xml:space="preserve">
<style type="text/css">
	.st0{fill:url(#SVGID_1_);}
	.st1{fill:#FFFFFF;}
</style>
<g id="Camada_1-2">
	<g>
		<linearGradient id="SVGID_1_" gradientUnits="userSpaceOnUse" x1="27.6016" y1="7.2089" x2="100.7116" y2="118.5489">
			<stop  offset="0" style="stop-color:#00FF00"/>
			<stop  offset="0.9" style="stop-color:#00FFD9"/>
		</linearGradient>
		<path class="st0" d="M111.6,0h-90C9.7,0,0,9.7,0,21.6v90c0,11.9,9.7,21.6,21.6,21.6h90c11.9,0,21.6-9.7,21.6-21.6v-90
			C133.2,9.7,123.5,0,111.6,0z M123.3,109.6c0,7.6-6.2,13.8-13.8,13.8H23.7c-7.6,0-13.8-6.2-13.8-13.8V23.7
			c0-7.6,6.2-13.8,13.8-13.8h85.9h0c7.6,0,13.8,6.2,13.8,13.8V109.6z"/>
		<g>
			<path class="st1" d="M53,63.6L33.2,51c-0.2-0.1-0.4-0.2-0.5-0.2c-0.2,0-0.3,0-0.5,0.1c-0.3,0.2-0.5,0.5-0.5,0.9v7.8
				c0,0.4,0.2,0.7,0.5,0.9l11.4,6.9l-11.4,6.9c-0.3,0.2-0.5,0.5-0.5,0.9v7.8c0,0.4,0.2,0.7,0.5,0.9c0.2,0.1,0.3,0.1,0.5,0.1
				c0.2,0,0.4-0.1,0.5-0.2L53,71.2c0.3-0.2,0.5-0.5,0.5-0.8v-5.9C53.5,64.1,53.3,63.8,53,63.6z"/>
			<path class="st1" d="M78.7,85.6H54.5c-0.6,0-1,0.4-1,1v6.4c0,0.6,0.4,1,1,1h24.2c0.6,0,1-0.4,1-1v-6.4
				C79.7,86,79.3,85.6,78.7,85.6z"/>
			<path class="st1" d="M101.5,59.6v-7.8c0-0.4-0.2-0.7-0.5-0.9c-0.2-0.1-0.3-0.1-0.5-0.1c-0.2,0-0.4,0.1-0.5,0.2L80.2,63.6
				c-0.3,0.2-0.5,0.5-0.5,0.8v5.8v0c0,0.4,0.2,0.7,0.6,0.9L100,83.8c0.2,0.1,0.4,0.2,0.5,0.2c0.2,0,0.3,0,0.5-0.1
				c0.3-0.2,0.5-0.5,0.5-0.9v-7.8c0-0.4-0.2-0.7-0.5-0.9l-11.4-6.9l11.4-6.9C101.3,60.3,101.5,60,101.5,59.6z"/>
		</g>
	</g>
</g>
</svg>
